<?xml version="1.0" encoding="UTF-8"?>
<svg width="403px" height="353px" viewBox="0 0 403 353" version="1.1" xmlns="http://www.w3.org/2000/svg" xmlns:xlink="http://www.w3.org/1999/xlink">
    <title>Artboard</title>
    <g id="Artboard" stroke="none" stroke-width="1" fill="none" fill-rule="evenodd">
        <path d="M0,0 L316,0 C364.048773,-8.82641645e-15 403,38.9512268 403,87 L403,353 L403,353 L87,353 C38.9512268,353 1.71529935e-14,314.048773 0,266 L0,0 L0,0 Z" id="Rectangle" fill-opacity="0.471864073" fill="#2BF37C"></path>
        <g id="Group" transform="translate(19, 32)" fill-rule="nonzero" stroke-linejoin="bevel" stroke-width="3">
            <polygon id="Path" stroke="#0B0C2E" fill="#0B0C2E" points="130.30967 227 179 231.413793 176.253366 240 128 234.982759"></polygon>
            <polygon id="Path" stroke="#111527" fill="#111527" points="110.382022 240 76 232 111.050994 232 112 240"></polygon>
            <polygon id="Path" stroke="#191633" fill="#191633" points="110 240 76.7230769 238.798206 76 232"></polygon>
            <polygon id="Path" stroke="#745A6E" fill="#745A6E" points="75 232 75 225 108 225"></polygon>
            <polygon id="Path" stroke="#6D5970" fill="#6D5970" points="111 232 108.856192 225 76 232"></polygon>
            <polygon id="Path" stroke="#080829" fill="#080829" points="191 243 192.122022 233 212 235.706897"></polygon>
            <polygon id="Path" stroke="#0B0C2E" fill="#0B0C2E" points="212 235 212 247.653928 204.009386 251 191 242.184713"></polygon>
            <path d="M139.544453,229.472404 C147.673401,235.166043 157.301414,231.202993 165.816719,234.508419 C166.388527,234.733396 167.686686,233.504677 168.24304,232.622077 C172.58569,225.699719 179.292845,224.401777 186,223 C185.953981,225.362122 184.835284,227.534829 183.032779,228.762862 C175.120191,234.387278 176.140173,244.511225 172.508419,252.627689 C172.292059,248.95884 172.075699,245.324602 171.735705,239.544434 C167.315783,246.466791 169.927555,253.094949 167.872137,260 C164.673102,254.306361 166.32671,248.889616 165.198548,244.147802 C164.132203,239.804022 162.555867,237.952292 158.475939,237.883068 C152.294229,237.883068 146.11252,238.488775 140.085353,236.775491 C137.535398,236.048644 133.223655,237.502339 133.007296,233.556595 C132.790936,229.610851 137.442672,231.099158 139.544453,229.472404 Z" id="Path" stroke="#6E4F5A" fill="#6E4F5A"></path>
            <path d="M365,268.657702 C361.912402,269.49386 358.639549,271.357795 355.660017,270.939716 C350.905117,270.260338 346.397225,268.065423 341.657762,266.515047 C341.503382,265.539529 341.349003,264.564012 341.210061,263.588494 C344.82255,262.351677 348.157155,259.547064 344.482914,255.941132 C336.377971,247.980211 327.423938,241.099328 318.80954,233.782945 C310.905291,226.710442 302.414397,220.282478 295.251171,212.338977 C288.921596,205.370994 281.511362,193.943501 276,186 C276.46314,186 279.488985,188.874293 279.952125,188.978813 L289.214918,199.064969 L290.897658,200.806965 L292.441457,202.252821 L292.657589,202.444441 L295.328361,204.935495 L310.766349,218.766941 C320.029141,227.047228 329.235328,235.333322 338.384909,243.625222 L363.255507,265.574369 C363.811275,266.602147 364.397918,267.629924 365,268.657702 Z" id="Path" stroke="#2B2536" fill="#2B2536"></path>
            <path d="M340.894565,263.843342 C341.033896,264.818382 341.188707,265.793422 341.343518,266.768462 C341.885358,268.09173 342.442679,269.397587 343,270.703444 C342.071132,275.28265 340.708792,276.797444 336.900432,272.932107 C328.200033,264.017457 319.190011,255.520681 310.179989,246.936847 C308.941498,245.770282 307.006355,245.526522 304.157826,244.359956 C305.30343,249.252567 307.362422,252.961201 306.464516,255.102806 C302.810967,263.930399 311.433961,269.31053 310.752791,277.145672 C310.752791,277.720249 313.678726,278.608232 315.242321,279.356923 C314.994622,287.818877 312.440235,289.908248 306.278742,286.321494 C302.934816,284.371414 299.869551,281.811934 296.680437,279.513626 L287.391754,268.927479 C281.199299,257.627463 273.799316,247.633304 263.10185,240.599088 C263.194736,246.014042 264.649963,250.715127 265.485945,255.538092 C265.748797,258.316077 265.748797,261.117591 265.485945,263.895577 C260.841604,258.045337 256.352074,252.142864 251.645808,246.48415 C247.465901,241.382602 242.527418,236.9601 238.951275,231.405855 C235.375132,225.85161 231.442923,222.700142 224.925365,223.501067 C220.931231,224.005999 216.766805,222.351913 212.679785,222.421559 C209.862218,222.421559 207.044651,223.762239 204.242565,224.51093 C204.149678,218.434342 204.056791,212.322932 203.979386,206.298578 L197.786931,195.851722 C189.411635,188.887152 186.841766,174.000382 173.543469,173.704388 C172.490752,173.704388 171.252261,170.79668 170.447242,169.038125 C164.56441,155.370156 158.805427,141.667363 153,127.964571 C153.092887,125.648851 153.201255,123.31572 153.294142,121 L155.244765,122.392914 C156.560662,125.753319 157.319237,129.618656 159.269861,132.421896 C170.571091,148.527465 186.392813,157.320236 202.353866,166.060772 C239.168011,186.205792 277.282571,203.791333 308.956979,234.174272 L336.141856,262.032554 L340.290801,263.773697 L340.894565,263.843342 Z" id="Path" stroke="#030204" fill="#030204"></path>
            <path d="M203.740458,207 C203.816794,213.042861 203.908397,219.120352 204,225.111269 L193.938931,233.993755 L203.725191,236.5044 C199.419847,241.265967 201.114504,245.90633 203.954198,250.529378 C203.862595,251.031507 203.755725,251.533636 203.633588,252.01845 L186.183206,252.01845 C186.549618,255.7065 186.793893,258.19983 187.053435,260.675844 C186.035623,263.123001 185.017812,265.564386 184,268 C185.526718,257.351405 187.267176,246.754754 188.580153,236.088845 C188.839695,234.01107 187.587786,231.708203 187.053435,229.509225 L185.526718,224.314789 L185.679389,221.35396 L188.259542,220.713313 C193.557252,217.042577 202.931298,218.687482 202.076336,207.017315 L203.740458,207 Z" id="Path" stroke="#110D17" fill="#110D17"></path>
            <path d="M265.355641,264.311994 C265.615356,261.532159 265.615356,258.728781 265.355641,255.948947 C264.499044,251.122771 263.091778,246.418558 263,241 C273.56979,247.969206 280.881453,258.039708 287,269.347245 C281.56979,272.274311 276.521989,275.462723 279.351816,284 L265.355641,264.311994 Z" id="Path" stroke="#110D17" fill="#110D17"></path>
            <path d="M309.492979,234 C277.657685,203.678987 239.349526,186.129289 202.348387,166.025328 C186.306262,157.337358 170.404175,148.527757 159.045541,132.455014 C157.085009,129.657488 156.322581,125.800029 155,122.463849 C155.326755,121.456045 155.637951,120.413488 155.949146,119.370932 L159.138899,116 C162.141935,118.276248 165.860721,119.944338 168.00797,122.950375 C171.490742,128.319872 174.611294,133.971037 177.343833,139.857164 C180.26907,145.625976 183.801139,148.30187 189.947249,145.261081 C196.497913,141.994404 203.359772,139.492269 210.097154,136.573111 C211.01518,138.797232 211.388615,142.01178 212.929032,143.054337 C222.031499,149.205419 231.211765,155.217494 240.40759,161.194817 L254.224668,170.126049 C255.376091,170.855839 256.574194,171.550876 257.678937,172.350169 C258.503605,172.958327 260.277419,173.514357 261.148767,174.087763 C263.311575,175.408335 263.902846,176.537771 265.816698,177.562951 C267.150575,178.22062 268.431215,179.005441 269.644402,179.908703 C271.245858,181.230627 272.721415,182.73285 274.047818,184.391695 C275.745519,186.065107 277.365832,187.833949 278.902467,189.691356 C280.380645,191.828597 281.812144,194.000589 283.243643,196.189957 C286.091082,200.516566 288.93852,204.877927 292.143833,208.909144 C293.124099,210.142836 294.151044,211.341776 295.255787,212.505964 C302.475522,220.429392 311.033397,226.841113 319,233.895744 L309.492979,234 Z" id="Path" stroke="#110D17" fill="#110D17"></path>
            <path d="M103,152.728822 C109.766497,151.271788 115.098622,151.412225 120.524293,158.75006 C126.854242,167.299164 135.803481,173.39062 143.630167,180.535354 L144.222625,180.851337 L143.708122,180.447581 C143.708122,177.533512 143.708122,174.636999 143.708122,171.670266 C146.389775,173.320401 149.164975,174.812545 151.768673,176.620672 C163.586657,184.853792 175.357868,193.192241 187.160261,201.49558 L189,207.358826 C187.082306,213.467837 183.574329,210.150012 180.95504,208.675423 C176.589558,206.23533 173.346628,207.025288 169.292966,210.132457 C162.885062,215.047753 155.74438,218.769335 148.915518,223 C145.236041,217.996931 149.071429,216.662779 152.03372,214.995089 C155.90029,212.800761 158.270123,209.974466 155.947063,204.778296 C154.263234,201.881782 153.062727,198.283083 150.80203,196.176528 C135.02393,181.571077 118.980783,167.193836 103,152.728822 Z" id="Path" stroke="#110D17" fill="#030204"></path>
            <path d="M109.864048,236 C108.957704,232.46762 111.072508,226.692178 105,227.010093 C107.432024,218.585366 112.930514,215.441548 120,215 C119.546828,218.426409 119.108761,221.835156 118.655589,225.243902 C118.472873,225.769056 118.355859,226.322264 118.308157,226.886459 L116.797583,227.08074 L109.864048,236 Z" id="Path" stroke="#403748" fill="#403748"></path>
            <path d="M115.831629,215.575244 C120.831593,213.530581 126.207257,212.880058 131.486581,213.680797 C140.754313,214.914794 155.501278,204 155.501278,204 L163,212.863925 C163,212.863925 137.200639,223.883001 135.556869,226.907164 C133.913099,229.931327 132.347604,229.618482 132.175399,237.21365 C132.003195,244.808817 123.518211,245 123.518211,245 L114,226.055532 L115.831629,215.575244 Z" id="Path" stroke="#160A10" fill="#160A10"></path>
            <path d="M258.57,161 L257.27,159.305085 L257.93,159 C258.21,159.610169 258.47,160.220339 258.73,160.830508 L258.57,161 Z" id="Path" stroke="#6C3950" fill="#110D17"></path>
            <polygon id="Path" stroke="#6C3950" fill="#2B2536" points="253.72 150.81 254.32 151.19 253.68 150.85"></polygon>
            <path d="M118,227.616651 C118.049506,227.061355 118.170946,226.516871 118.360574,226 C127.233823,226.747484 122.718813,236.030192 126.277518,242.183898 L131.059039,233.926807 L163.432288,236.603843 L165,248.667887 C156.487325,248.667887 147.958973,248.94602 139.461975,248.407136 C133.034356,248.007319 129.459973,249.693504 130.541694,257.759378 C130.776851,259.497713 130.040027,261.514181 129.648099,264 C124.443296,262.696249 119.348232,262.609332 118.125417,255.603843 C118.083611,246.286368 118.041806,236.957304 118,227.616651 Z" id="Path" stroke="#141729" fill="#141729"></path>
            <path d="M186.436718,229.278696 C186.985513,231.490844 188.235547,233.807503 187.961149,235.897722 C186.650138,246.627512 184.912286,257.287628 183.387855,268 L173.844915,258.733363 L173.113188,264.115677 C170.323479,261.485485 164.164776,265.474319 165.094679,257.14828 C166.131292,255.632872 167.823411,254.27423 168.143542,252.602054 C168.657001,248.333002 168.977557,244.036548 169.103933,239.72979 L170.918007,239.903975 C171.131427,243.753461 171.360092,247.602948 171.649734,252.741402 C172.655858,248.769987 173.418074,246.122376 174.012602,243.439929 C174.652863,240.496204 175.155926,237.517642 175.719965,234.53908 C175.719965,233.372041 175.796187,232.222421 175.84192,231.055382 L175.84192,231.142474 L181.60427,229 L182.0616,229.539973 L180.232282,243.474766 L183.281145,244.154087 C184.363491,239.189817 185.430593,234.225547 186.512939,229.278696 L186.436718,229.278696 Z" id="Path" stroke="#141729" fill="#141729"></path>
            <path d="M175.947757,234.402741 C175.351161,237.377438 174.819061,240.352135 174.141844,243.29204 C173.512999,245.971007 172.706787,248.615182 171.642588,252.581444 C171.336227,247.449657 171.094364,243.605166 170.868625,239.760675 L168.917593,239.621508 C168.761981,243.918065 168.401396,248.203128 167.837269,252.459673 C167.547033,254.199262 165.757244,255.486558 164.612423,257 C164.612423,254.147074 164.612423,251.294149 164.612423,248.441223 L163,236.368477 C163.080621,235.55087 163.177367,234.715867 163.257988,233.89826 L175.883261,224 C175.883261,226.348445 175.883261,228.69689 175.963882,231.045335 L175.963882,230.958355 C176.028379,232.089088 175.99613,233.237217 175.947757,234.402741 Z" id="Path" stroke="#403748" fill="#403748"></path>
            <path d="M110,235.904282 L117,227 L115.488121,255 L112.464363,254.876574 C111.637869,248.540722 110.816415,242.216625 110,235.904282 Z" id="Path" stroke="#141729" fill="#141729"></path>
            <path d="M116,254.808696 L117.449275,227.191304 L118.898551,227 C118.898551,236.344928 118.932367,245.678261 119,255 L116,254.808696 Z" id="Path" stroke="#2B2536" fill="#2B2536"></path>
            <path d="M186.186364,201 C174.525505,192.77881 162.895455,184.522857 151.219192,176.37119 C148.646717,174.633095 145.904798,173.103571 143.255303,171.469762 C140.806061,160.398095 138.356818,149.34381 136,138.654524 L152.436111,128 C158.212626,141.67881 163.942929,155.357619 169.796465,169.001667 C170.551263,170.739762 171.783586,173.642381 172.877273,173.659762 C186.109343,173.955238 188.666414,188.885476 197,195.768333 C194.553152,196.384284 192.136548,197.144291 189.760101,198.045238 C188.455925,198.843293 187.253718,199.837276 186.186364,201 L186.186364,201 Z" id="Path" stroke="#080611" fill="#080611"></path>
            <path d="M279.857763,283.744093 C276.912415,275.153599 282.055086,271.945312 287.649689,269 L297,279.659225 C292.667689,292.352118 290.314528,292.930662 279.857763,283.744093 Z" id="Path" stroke="#122644" fill="#122644"></path>
            <path d="M152.964286,120.691706 L146,100.120501 L146.12987,100 L156,118.935837 C155.675325,119.968701 155.350649,121.001565 155.00974,122 L152.964286,120.691706 Z" id="Path" stroke="#6C3950" fill="#6B4C58"></path>
            <path d="M188,220 C189.548286,215.504425 191.096572,211.026549 192.644858,206.530973 L201.934573,206 C202.879028,217.929204 193.372552,216.247788 188,220 Z" id="Path" stroke="#2B2536" fill="#2B2536"></path>
            <path d="M176,223.96875 L186,221 C186,221.989583 185.886179,222.979167 185.837398,223.96875 L182.243902,228.864583 L176.097561,231 L176,223.96875 Z" id="Path" stroke="#6B4C58" fill="#6B4C58"></path>
            <polygon id="Path" stroke="#141729" fill="#141729" points="182 228.504792 185.442368 224 187 228.792332 187 228.792332 182.514019 229"></polygon>
            <polygon id="Path" stroke="#6C3950" fill="#331C22" points="143.72 179.77 144.38 180.23 143.62 179.87"></polygon>
            <path d="M182.805825,229.228337 L187,229 C185.966019,233.98829 184.946602,238.994145 183.912621,244 L181,243.314988 L182.805825,229.228337 Z" id="Path" stroke="#110D17" fill="#110D17"></path>
            <polygon id="Path" stroke="#847187" fill="#847187" points="0 53 49.8750958 22 61 32.8270762"></polygon>
            <polygon id="Path" stroke="#1E172C" fill="#1E172C" points="0 53 61.0579609 33 67 36.1818182"></polygon>
            <polygon id="Path" stroke="#3D2751" fill="#3D2751" points="0 53 66.9460734 36 76 45.6839917"></polygon>
            <polygon id="Path" stroke="#140609" fill="#140609" points="0 52.4290375 52.2552558 56 83 50.0603589 75.3099535 45"></polygon>
            <polygon id="Path" stroke="#1C0D11" fill="#1C0D11" points="49 22.5932203 79 21 60.2559117 33"></polygon>
            <polygon id="Path" stroke="#9E6467" fill="#9E6467" points="49 22 69.9487048 4.04758128 110 0 78.7725058 20.3600317"></polygon>
            <polygon id="Path" stroke="#220E19" fill="#220E19" points="79 20.6681922 99 24 85.6149068 16"></polygon>
            <polygon id="Path" stroke="#3F2C3B" fill="#3F2C3B" points="99.1770701 24 110 0 86 16.2253521"></polygon>
            <polygon id="Path" stroke="#4D3645" fill="#4D3645" points="99 24 114 3.04225352 112.328313 0 109.662651 0"></polygon>
            <polygon id="Path" stroke="#170A0F" fill="#170A0F" points="66.7678722 36 79 20 61 32.7280899"></polygon>
            <polygon id="Path" stroke="#321920" fill="#321920" points="79 20 75.3477723 45 66 35.472879"></polygon>
            <polygon id="Path" stroke="#0C0205" fill="#0C0205" points="78.8474576 27 83 29.65625 78 33"></polygon>
            <polygon id="Path" stroke="#E4905F" fill="#E4905F" points="80.1940299 28.8221024 83 29 81.5970149 23 78.5223881 23.8894879 78 27.4474394"></polygon>
            <polygon id="Path" stroke="#160A0D" fill="#160A0D" points="79 23 82 22.0934066 82 20.4120879 79.4223301 20"></polygon>
            <polygon id="Path" stroke="#1D0C0C" fill="#1D0C0C" points="82 22.9490446 99 24 82 21"></polygon>
            <polygon id="Path" stroke="#2A1920" fill="#2A1920" points="83.4383438 29 99 23.8894879 82 23"></polygon>
            <polygon id="Path" stroke="#2C1A23" fill="#2C1A23" points="82 35 99 24 83.5219338 29.5087163"></polygon>
            <polygon id="Path" stroke="#29151E" fill="#29151E" points="82 34.0773732 83.5219338 50 99 23"></polygon>
            <polygon id="Path" stroke="#241219" fill="#241219" points="82.3935743 34 77.5742972 34 76 45.0253583 84 50"></polygon>
            <polygon id="Path" stroke="#0C0205" fill="#0C0205" points="53 56.6520811 82.1190565 67 94 60.3404482 83.5619618 51"></polygon>
            <polygon id="Path" stroke="#43242D" fill="#43242D" points="84 50.4728122 99.6561899 23.6852167 103.166132 19 108 59.5645709 94.4682489 60"></polygon>
            <polygon id="Path" stroke="#261625" fill="#261625" points="103 19 134 46.637037 111.578814 68 107.933604 59.254321"></polygon>
            <polygon id="Path" stroke="#191728" fill="#191728" points="103 18.9473684 114.810603 3 141 29.0175439 133.341562 47"></polygon>
            <polygon id="Path" stroke="#1B070D" fill="#1B070D" points="82 66.8661972 96 80 94.4123711 60"></polygon>
            <polygon id="Path" stroke="#270E17" fill="#270E17" points="95.5148515 80 111 68.7166236 107.450045 60 94 60.4306632"></polygon>
            <polygon id="Path" stroke="#1F0A14" fill="#1F0A14" points="85.2712477 87 91 75.2046834 82 67"></polygon>
            <polygon id="Path" stroke="#221017" fill="#221017" points="85 87.127182 83.4029851 109 82 67"></polygon>
            <polygon id="Path" stroke="#502933" fill="#502933" points="95.4308511 79.8018624 98 87.8401449 83 109 84.7074468 86.9606829 90.3244681 75"></polygon>
            <polygon id="Path" stroke="#6B3740" fill="#6B3740" points="97.5270886 87.3728223 126 93 110.884557 68 95 79.4111498"></polygon>
            <polygon id="Path" stroke="#804742" fill="#804742" points="97.6610678 88 109 124 102.277744 124 83.1091782 111.221902 83 108.801153"></polygon>
            <polygon id="Path" stroke="#784148" fill="#784148" points="126.427785 93.5850144 135 94.3112392 129.405337 120.974063 109.393054 124 98 88"></polygon>
            <polygon id="Path" stroke="#77434D" fill="#77434D" points="134.151618 94 138.352641 80.88622 147 69.776654 126.853492 53 111 68.480826 125.764906 93.2743363"></polygon>
            <polygon id="Path" stroke="#3D263E" fill="#3D263E" points="140.78057 64 159 61.5641283 133.078299 47 127 52.7915832"></polygon>
            <polygon id="Path" stroke="#2F2339" fill="#2F2339" points="133 47.2701644 136.223587 40 165 60.9146437 159.354791 62"></polygon>
            <polygon id="Path" stroke="#2E2757" fill="#2E2757" points="165.293466 61 190 57.6186021 141.530047 29 137 39.6197028"></polygon>
            <polygon id="Path" stroke="#6C3950" fill="#6C3950" points="148 69 148 63 141 63.8406593"></polygon>
            <polygon id="Path" stroke="#3E1E26" fill="#3E1E26" points="102.982789 123.975259 119 150.048683 116.636805 155 103.121801 153.244214 86.0697264 119.901836 84 111"></polygon>
            <polygon id="Path" stroke="#452830" fill="#452830" points="103 124 109.649952 124 119 150"></polygon>
            <polygon id="Path" stroke="#3D2831" fill="#3D2831" points="109 124.057229 128.634966 121 136 138.976506 118.317768 150"></polygon>
            <polygon id="Path" stroke="#301920" fill="#301920" points="116 155.072713 145 185 143.317034 164.702258 136.304675 139 118.384202 150.108305"></polygon>
            <polygon id="Path" stroke="#060204" fill="#060204" points="145.59747 184.682358 151 196 116.623094 166.729022 103 153 116.623094 154.760131"></polygon>
            <polygon id="Path" stroke="#3E2226" fill="#3E2226" points="136.555205 139 152.817035 132.207207 154 121.809009 138.952681 81 134.630915 94.2198198 129 121.077477"></polygon>
            <polygon id="Path" stroke="#5B3D6F" fill="#5B3D6F" points="160 61.3404255 168.372449 65 193 59.212766 189.954082 57 165.494898 60.2680851"></polygon>
            <polygon id="Path" stroke="#734378" fill="#734378" points="168 64.7971985 167.222937 90 142.154877 89.2052375 139 80.409866 147.765273 69.0535932 147.765273 62.6248477 159.498928 61"></polygon>
            <polygon id="Path" stroke="#4E3452" fill="#4E3452" points="167.760043 66 181 92 167 90.5059445"></polygon>
            <polygon id="Path" stroke="#4A2B36" fill="#4A2B36" points="167.330689 90.7065036 170 111.281267 163.456376 115.003335 158.102502 121 145 90"></polygon>
            <polygon id="Path" stroke="#714C57" fill="#714C57" points="144.365079 89.0707786 142 89 153.920635 121.646613 155.888889 124 158 120.903438"></polygon>
            <polygon id="Path" stroke="#2E233D" fill="#2E233D" points="167 90 181.182065 91.5301508 184 109.733668 169.694746 111"></polygon>
            <polygon id="Path" stroke="#30223B" fill="#30223B" points="163 114.768811 179.00838 143 185 140.38277 169.590782 111"></polygon>
            <polygon id="Path" stroke="#140A0F" fill="#140A0F" points="179.75203 143.074886 183 148.540639 180.532792 153 158 121.038356 163.480949 115"></polygon>
            <polygon id="Path" stroke="#160A10" fill="#160A10" points="180 153 165.137056 141.325733 156.761421 127.132465 156 124.040174 158.025381 121"></polygon>
            <polygon id="Path" stroke="#262951" fill="#262951" points="184.988484 140.772608 214.669866 122 217.848369 125.662516 219 130.510485 192.37428 146.947575 182.193858 149 179 143.426606"></polygon>
            <polygon id="Path" stroke="#242242" fill="#242242" points="184.555177 110 216 122.269362 185.714578 141 170 111.271071"></polygon>
            <polygon id="Path" stroke="#1B1D35" fill="#1B1D35" points="181 91.5321959 201.213699 90 215 122 183.841096 109.760044"></polygon>
            <polygon id="Path" stroke="#2A2E58" fill="#2A2E58" points="202 90.4983819 193.175334 60 168 65.8683927 181.628164 92"></polygon>
            <polygon id="Path" stroke="#1D294E" fill="#1D294E" points="193 60 241.151597 127.45022 245 147 219.907789 130.702719 218.743957 125.937025 215.531782 122.336665 201.752014 90.7335066"></polygon>
            <polygon id="Path" stroke="#12244B" fill="#12244B" points="241 127 255.345114 149.682825 256 156 244.866944 146.506882"></polygon>
            <polygon id="Path" stroke="#0F1129" fill="#0F1129" points="241 127 304 193 265.190395 167.087719 255.850772 156.315789 255.202401 149.929825"></polygon>
            <polygon id="Path" stroke="#0A090F" fill="#0A090F" points="256 157 268.634819 180.431851 268.634819 175.215208 304 193 265.310676 167.571019"></polygon>
            <polygon id="Path" stroke="#0E1425" fill="#0E1425" points="269 180 206 138.594025 220.149815 130 245.210332 146.467487 256.276015 156.080844"></polygon>
            <path d="M304.453712,193.227787 C304.453712,193.227787 311.19578,201.715266 296.523683,193.227787 C287.0789,187.701987 277.891918,181.617832 269,175 L304.453712,193.227787 Z" id="Path" stroke="#2B2536" fill="#2B2536"></path>
            <path d="M321,230 L319,228 L321,230 Z" id="Path" stroke="#6C3950" fill="#F6E7D0"></path>
            <path d="M315.162584,279.730557 C313.603563,278.987565 310.579065,278.106342 310.641425,277.536138 C311.327394,269.760641 302.643653,264.421466 306.32294,255.661071 C307.227171,253.535769 305.153675,249.855366 304,245 C306.868597,246.157685 308.817372,246.39959 310.064588,247.557275 C319.138085,256.023928 328.211581,264.50786 336.973274,273.354649 C340.808463,277.190561 342.180401,275.687298 343.115813,271.142951 L353,285.812724 L344.752784,284.689596 L343.63029,283.635584 C336.817372,292.862508 332.249443,285.242521 327.167038,280.991915 C323.253898,277.726206 319.200445,274.650565 315.209354,271.488529 L313.650334,273.078186 C314.14922,275.289884 314.663697,277.51886 315.162584,279.730557 Z" id="Path" stroke="#110D17" fill="#110D17"></path>
            <path d="M309,234 L318.508941,234 C327.193048,241.364115 336.219539,248.289889 344.39007,256.302747 C348.094044,259.932203 344.732454,262.755114 341.090732,264 L340.483778,264 L336.32848,262.246639 L309,234 Z" id="Path" stroke="#122644" fill="#122644"></path>
        </g>
    </g>
</svg>