<?xml version="1.0" encoding="UTF-8"?>
<svg width="560px" height="536px" viewBox="0 0 560 536" version="1.1" xmlns="http://www.w3.org/2000/svg" xmlns:xlink="http://www.w3.org/1999/xlink">
    <title>icon-design</title>
    <defs>
        <linearGradient x1="5.66666083%" y1="2.83791545%" x2="91.99977%" y2="92.7604472%" id="linearGradient-1">
            <stop stop-color="#FFDB6E" offset="25.9336%"></stop>
            <stop stop-color="#FFBC5E" offset="100%"></stop>
        </linearGradient>
        <linearGradient x1="5.66666083%" y1="4.22009201%" x2="91.99977%" y2="91.5072692%" id="linearGradient-2">
            <stop stop-color="#FFDB6E" offset="25.9336%"></stop>
            <stop stop-color="#FFBC5E" offset="100%"></stop>
        </linearGradient>
    </defs>
    <g id="chemtools_overview" stroke="none" stroke-width="1" fill="none" fill-rule="evenodd">
        <g id="icon-design">
            <path d="M549.202817,121.807409 L481.609408,121.807409 L506.145921,97.1724285 L529.798369,73.4234171 C534.864504,68.3377923 537.654549,61.5726052 537.654549,54.3794296 C537.654549,47.186404 534.864504,40.4234663 529.798369,35.3354422 L502.459825,7.88659489 C497.395189,2.80082015 490.656826,0 483.491415,0 C476.327503,0 469.590638,2.80082015 464.524504,7.88659489 L440.870556,31.6354563 L412.288329,60.3325783 L351.060178,121.806359 L77.9878999,121.806359 L77.9878999,34.4256293 C77.9878999,29.5468006 74.0487221,25.5930809 69.1905675,25.5930809 C31.0394749,25.5954802 0,56.75721 0,95.063828 L0,470.21597 C0,470.8683 0.0749206486,471.502634 0.208429244,472.114475 C1.42349232,488.368739 8.42737423,503.469804 20.1326767,514.934317 C32.644425,527.186124 49.1609816,533.932866 66.640868,533.932866 L335.463198,533.932866 C476.434889,534.499749 546.920734,531.476537 546.920734,524.863229 C546.920734,509.867137 551.458526,121.807409 549.202817,121.807409 Z M476.967325,20.3792395 C480.563516,16.766231 486.423809,16.766231 490.02,20.3792395 L517.360043,47.8292865 C520.957733,51.4410953 520.957733,57.321363 517.360043,60.9343715 L499.927507,78.4375105 L459.53329,37.8823785 L476.967325,20.3792395 Z M447.091967,50.3738234 L487.484686,90.9277557 L471.343781,107.134633 L430.952561,66.5807002 L447.091967,50.3738234 Z M260.674409,311.318875 L235.475598,320.250548 L218.685881,303.393441 L227.581959,278.093533 L260.674409,311.318875 Z M224.761946,262.431615 L277.2064,314.917938 L472.000086,119.968738 L419.555632,67.4824152 L224.761946,262.431615 Z" id="Shape" fill="url(#linearGradient-1)" opacity="0.15"></path>
            <path d="M483.491415,0 C490.656826,0 497.395189,2.80082015 502.459825,7.88659489 L529.798369,35.3354422 C534.864504,40.4234663 537.654549,47.186404 537.654549,54.3794296 C537.654549,61.5726052 534.864504,68.3377923 529.798369,73.4234171 L506.145921,97.1724285 L481.609408,121.807409 L549.202817,121.807409 C554.062171,121.807409 558,125.761429 558,130.640107 C555.608533,373.464459 554.412799,504.872166 554.412799,524.863229 L554.412127,525.162685 C554.397778,527.489379 554.077334,533.860885 546.920734,533.860885 L542.523896,533.861 C542.14339,533.861019 541.759359,533.861041 541.371802,533.861065 L532.714852,533.861921 C532.277937,533.861979 531.837497,533.862039 531.393531,533.862101 L525.896713,533.862965 C525.424542,533.863047 524.948846,533.863131 524.469625,533.863217 L521.551988,533.863764 C521.058664,533.86386 520.561814,533.863958 520.061439,533.864059 L517.016882,533.864693 C516.502404,533.864803 515.984402,533.864916 515.462873,533.865031 L512.291395,533.865751 C511.755764,533.865875 511.216608,533.866003 510.673926,533.866132 L507.375527,533.866938 C467.843841,533.876819 410.539732,533.898795 335.463198,533.932866 L66.640868,533.932866 C49.1609816,533.932866 32.644425,527.186124 20.1326767,514.934317 C8.42737423,503.469804 1.42349232,488.368739 0.208429244,472.114475 C0.0749206486,471.502634 0,470.8683 0,470.21597 L0,95.063828 C0,56.75721 31.0394749,25.5954802 69.1905675,25.5930809 C74.0487221,25.5930809 77.9878999,29.5468006 77.9878999,34.4256293 L77.9878999,121.806359 L351.060178,121.806359 L412.288329,60.3325783 L440.870556,31.6354563 L464.524504,7.88659489 C469.590638,2.80082015 476.327503,0 483.491415,0 Z M60.3920364,44.0117313 C36.1187951,48.2170854 17.5922673,69.5107866 17.5922673,95.063828 L17.5922673,423.97252 C18.648199,422.787829 19.7323007,421.621133 20.8760394,420.500924 C31.7488236,409.840202 45.5378191,403.187936 60.3932351,401.301428 L60.3932351,345.53396 C60.3932351,340.655731 64.332413,336.702761 69.1905675,336.702761 C74.0487221,336.702761 77.9878999,340.655731 77.9878999,345.53396 L77.9878999,409.577771 C77.9878999,414.457499 74.0487221,418.410469 69.1905675,418.410469 C68.3183413,418.410469 67.4498612,418.432963 66.5882737,418.476452 C66.3798445,418.486949 66.1714152,418.507944 65.9631358,418.52144 C65.3051827,418.563429 64.6472295,418.606918 63.9952701,418.672901 C63.8043723,418.690896 63.6160217,418.720888 63.4263227,418.741883 C62.7508381,418.818363 62.0753535,418.897842 61.4069115,418.999816 C61.2816442,419.017811 61.1587743,419.044804 61.0359044,419.064299 C60.2959881,419.182768 59.5608667,419.310235 58.8327879,419.458696 C58.788285,419.469193 58.7437821,419.479691 58.6992793,419.488688 C42.8173005,422.796826 29.5831673,433.456049 22.7021552,447.753323 C22.6880702,447.781816 22.6751838,447.811808 22.6612486,447.8403 C22.3311482,448.530121 22.0185792,449.225939 21.7176979,449.932255 C21.6486211,450.095713 21.5829906,450.26067 21.5163112,450.424127 C21.2822591,450.992479 21.0550997,451.56383 20.8408267,452.142679 C20.7261981,452.4471 20.6207098,452.75452 20.5143225,453.06044 C20.360885,453.498326 20.2098449,453.937711 20.0682449,454.380096 C19.9266449,454.82398 19.7931363,455.270864 19.6644226,455.720747 C19.5742182,456.029666 19.4864112,456.335587 19.4022004,456.646006 C19.2475641,457.218856 19.1035667,457.793207 18.9702079,458.372056 C18.925705,458.561007 18.8812022,458.751457 18.8390968,458.941907 C18.6880567,459.625729 18.5499031,460.31255 18.4270332,461.00237 C18.4117494,461.089348 18.3954167,461.179324 18.3801329,461.267801 C18.2455754,462.0401 18.1273506,462.818397 18.0254585,463.628186 C17.8170293,465.273258 17.6871169,466.937824 17.6367702,468.617386 C18.482025,495.356918 39.9608758,516.270469 66.6420667,516.270469 L353.059061,516.270469 C409.849226,516.286064 452.55605,516.297605 481.179532,516.305092 L484.419741,516.305937 C486.008596,516.306351 487.550576,516.306752 489.045681,516.307138 L491.97339,516.307894 C492.450925,516.308017 492.923251,516.308139 493.390369,516.308259 L496.130579,516.308961 C496.576863,516.309074 497.01794,516.309187 497.453808,516.309298 L500.006517,516.309946 C500.421552,516.310051 500.831379,516.310154 501.235997,516.310256 L503.601206,516.31085 C503.984991,516.310946 504.363567,516.31104 504.736935,516.311133 L507.956624,516.31193 C508.298742,516.312014 508.635651,516.312096 508.967353,516.312177 L511.812041,516.312865 C512.112492,516.312937 512.407736,516.313008 512.69777,516.313077 L516.657667,516.313999 C516.895618,516.314053 517.128361,516.314106 517.355896,516.314157 L520.889021,516.314912 C521.054056,516.314945 521.213882,516.314977 521.3685,516.315007 L524.72201,516.315919 L525.553573,516.321981 C532.658291,516.398288 539.42867,516.994909 539.42867,509.867137 C539.42867,504.86844 539.754325,444.302722 540.405635,328.169984 L540.405635,139.474155 L464.015043,139.474155 L282.982782,321.231292 C282.755023,321.460733 282.515277,321.672178 282.271036,321.870126 C282.221588,321.910615 282.169143,321.945106 282.119696,321.982597 C281.915912,322.140056 281.710629,322.290017 281.497854,322.426481 C281.433423,322.46697 281.365994,322.502961 281.300064,322.543451 C281.09628,322.667918 280.889499,322.784888 280.679721,322.88986 C280.600305,322.92885 280.519391,322.964841 280.438476,323.002331 C280.236191,323.093807 280.032407,323.182284 279.822629,323.260264 C279.779175,323.276759 279.737219,323.299254 279.692267,323.31425 L226.04159,342.330794 L400.832962,342.330794 C405.692315,342.330794 409.630144,346.283764 409.630144,351.161993 C409.630144,356.041721 405.692315,359.994691 400.832962,359.994691 L157.207495,359.994691 C152.34964,359.994691 148.410313,356.041721 148.410313,351.161993 C148.410313,346.283764 152.34964,342.330794 157.207495,342.330794 L186.464009,342.330794 C186.546421,341.877912 186.658802,341.42803 186.813139,340.987144 L198.497763,307.749806 L215.636611,259.000509 C215.659087,258.939025 215.690554,258.88054 215.71303,258.817556 C215.780458,258.642102 215.852382,258.465148 215.931798,258.292693 C215.982744,258.178723 216.03369,258.064753 216.089131,257.955281 C216.174541,257.785825 216.268941,257.617869 216.364839,257.452912 C216.426274,257.349439 216.484712,257.245966 216.549144,257.143993 C216.663024,256.970038 216.784395,256.803581 216.908763,256.637125 C216.970198,256.554646 217.027138,256.469168 217.09157,256.38819 C217.284865,256.148252 217.490148,255.915813 217.710414,255.69387 L258.897292,214.343646 C262.331654,210.896044 267.901255,210.896044 271.337116,214.343646 C274.772977,217.792747 274.772977,223.38329 271.337116,226.83539 L236.373148,261.939743 L276.764368,302.493675 L454.149492,124.394535 C454.152489,124.390786 454.156984,124.387337 454.159981,124.383738 L458.899461,119.626077 L418.508241,79.0710954 L360.925729,136.88583 L297.274645,200.793177 C293.838784,204.240778 288.269183,204.240778 284.833322,200.793177 C281.397461,197.344075 281.397461,191.752033 284.833322,188.301432 L333.467312,139.472656 L77.9867012,139.472656 L77.9867012,310.206165 C77.9867012,315.082895 74.0475233,319.038864 69.1893688,319.038864 C64.3312143,319.038864 60.3920364,315.082895 60.3920364,310.206165 Z M227.581959,278.093533 L218.685881,303.393441 L235.475598,320.250548 L260.674409,311.318875 L227.581959,278.093533 Z M447.091967,50.3738234 L430.952561,66.5807002 L471.343781,107.134633 L487.484686,90.9277557 L447.091967,50.3738234 Z M490.02,20.3792395 C486.423809,16.766231 480.563516,16.766231 476.967325,20.3792395 L459.53329,37.8823785 L499.927507,78.4375105 L517.360043,60.9343715 C520.957733,57.321363 520.957733,51.4410953 517.360043,47.8292865 Z" id="Shape" stroke="url(#linearGradient-2)" stroke-width="3.75" fill="url(#linearGradient-2)" fill-rule="nonzero"></path>
        </g>
    </g>
</svg>