<?xml version="1.0" encoding="UTF-8"?>
<svg width="524px" height="397px" viewBox="0 0 524 397" version="1.1" xmlns="http://www.w3.org/2000/svg" xmlns:xlink="http://www.w3.org/1999/xlink">
    <title>icon-photo</title>
    <defs>
        <linearGradient x1="5.66667526%" y1="29.2180419%" x2="54.3010309%" y2="83.0323178%" id="linearGradient-1">
            <stop stop-color="#FFDB6E" offset="25.9336%"></stop>
            <stop stop-color="#FFBC5E" offset="100%"></stop>
        </linearGradient>
        <linearGradient x1="5.66667526%" y1="29.2180419%" x2="54.3010309%" y2="83.0323178%" id="linearGradient-2">
            <stop stop-color="#2BF27B" offset="25.9336%"></stop>
            <stop stop-color="#2BF27B" offset="100%"></stop>
        </linearGradient>
        <linearGradient x1="46.2327896%" y1="0%" x2="61.0921163%" y2="15.156212%" id="linearGradient-3">
            <stop stop-color="#FFDB6E" offset="25.9336%"></stop>
            <stop stop-color="#FFBC5E" offset="100%"></stop>
        </linearGradient>
        <linearGradient x1="46.2327896%" y1="0%" x2="61.0921163%" y2="15.156212%" id="linearGradient-4">
            <stop stop-color="#2BF27B" offset="25.9336%"></stop>
            <stop stop-color="#2BF27B" offset="100%"></stop>
        </linearGradient>
        <linearGradient x1="5.66666083%" y1="21.4406454%" x2="66.7038332%" y2="88.9786124%" id="linearGradient-5">
            <stop stop-color="#FFDB6E" offset="25.9336%"></stop>
            <stop stop-color="#FFBC5E" offset="100%"></stop>
        </linearGradient>
        <linearGradient x1="5.66666083%" y1="21.4406454%" x2="66.7038332%" y2="88.9786124%" id="linearGradient-6">
            <stop stop-color="#2BF27B" offset="25.9336%"></stop>
            <stop stop-color="#2BF27B" offset="100%"></stop>
        </linearGradient>
        <linearGradient x1="5.71944671%" y1="0%" x2="91.9092429%" y2="95.3702629%" id="linearGradient-7">
            <stop stop-color="#FFDB6E" offset="25.9336%"></stop>
            <stop stop-color="#FFBC5E" offset="100%"></stop>
        </linearGradient>
        <linearGradient x1="5.71944671%" y1="0%" x2="91.9092429%" y2="95.3702629%" id="linearGradient-8">
            <stop stop-color="#2BF27B" offset="25.9336%"></stop>
            <stop stop-color="#2BF27B" offset="100%"></stop>
        </linearGradient>
        <linearGradient x1="5.71882757%" y1="0%" x2="91.9089916%" y2="95.3716442%" id="linearGradient-9">
            <stop stop-color="#FFDB6E" offset="25.9336%"></stop>
            <stop stop-color="#FFBC5E" offset="100%"></stop>
        </linearGradient>
        <linearGradient x1="5.71882757%" y1="0%" x2="91.9089916%" y2="95.3716442%" id="linearGradient-10">
            <stop stop-color="#2BF27B" offset="25.9336%"></stop>
            <stop stop-color="#2BF27B" offset="100%"></stop>
        </linearGradient>
    </defs>
    <g id="chemtools_overview" stroke="none" stroke-width="1" fill="none" fill-rule="evenodd">
        <g id="Artboard" transform="translate(-36, -653)">
            <g id="icon-photo" transform="translate(38, 655)">
                <path d="M6.49998375,78.0564467 C6.49998375,63.6825254 18.1405446,52.029936 32.4999188,52.029936 L484.898788,52.029936 C499.258552,52.029936 510.898723,63.6825254 510.898723,78.0564467 L510.898723,351.189712 C510.898723,365.564154 499.258552,377.216223 484.898788,377.216223 L301.739646,377.216223 C356.710008,359.570248 396.499009,308.005224 396.499009,247.142228 C396.499009,171.712195 335.386162,110.563559 259.99935,110.563559 C184.612538,110.563559 123.499691,171.712195 123.499691,247.142228 C123.499691,308.005224 163.288692,359.570248 218.259054,377.216223 L32.4999188,377.216223 C18.1405446,377.216223 6.49998375,365.564154 6.49998375,351.189712 L6.49998375,78.0564467 Z M259.99935,312.179876 C295.89746,312.179876 324.999188,283.061416 324.999188,247.142228 C324.999188,211.223041 295.89746,182.104581 259.99935,182.104581 C224.10124,182.104581 194.999513,211.223041 194.999513,247.142228 C194.999513,283.061416 224.10124,312.179876 259.99935,312.179876 Z" id="Shape" fill="url(#linearGradient-2)" opacity="0.15"></path>
                <path d="M13.609406,268.925117 C13.609406,272.235689 10.9250427,274.921625 7.61720096,274.921625 C4.30935923,274.921625 1.62499594,272.235689 1.62499594,268.925117 L1.62499594,238.098016 C1.62499594,234.784841 4.30883923,232.102809 7.61720096,232.102809 C10.9255627,232.102809 13.609406,234.784841 13.609406,238.098016 L13.609406,268.925117 Z" id="Path" stroke="url(#linearGradient-3)" stroke-width="3.25" fill="url(#linearGradient-4)" fill-rule="nonzero"></path>
                <path d="M490.681173,49.7586024 L459.130252,49.7586024 L459.130252,46.162129 C459.130252,35.9762636 450.846673,27.6838269 440.662498,27.6838269 L437.428106,27.6838269 L437.428106,18.4783802 C437.428106,8.28848069 429.140627,0 418.960353,0 L382.569544,0 C372.389269,0 364.10179,8.28848069 364.10179,18.4783802 L364.10179,27.6838269 L360.867398,27.6838269 C350.684523,27.6838269 342.400944,35.9722295 342.400944,46.162129 L342.400944,49.7586024 L233.978615,49.7586024 L233.978615,41.8194756 C233.978615,31.6336102 225.695036,23.3410433 215.510861,23.3410433 L200.823498,23.3410433 C190.643223,23.3410433 182.355744,31.6295761 182.355744,41.8194756 L182.355744,49.7586024 L164.535389,49.7586024 L164.535389,30.9626467 C164.535389,20.7767813 156.251809,12.4843446 146.067635,12.4843446 L66.2774743,12.4843446 C56.0973298,12.4843446 47.8097205,20.7767813 47.8097205,30.9626467 L47.8097205,49.7586024 L29.3181767,49.7586024 C13.1515471,49.7586024 0,62.9217705 0,79.0938635 L0,204.906407 C0,209.117496 3.41184147,212.526969 7.61720096,212.526969 C11.8225604,212.526969 15.2344019,209.117496 15.2344019,204.906407 L15.2344019,132.524078 L56.9225677,132.524078 C60.2748693,144.805988 71.5221812,153.864515 84.8442879,153.864515 C98.1704246,153.864515 109.413706,144.805988 112.766008,132.524078 L173.259667,132.524078 C138.120755,158.953999 115.352742,200.999828 115.352742,248.269176 C115.352742,279.303188 125.167587,308.082002 141.850445,331.673733 L15.2344019,331.673733 L15.2344019,302.116726 C15.2344019,297.905636 11.8225604,294.494862 7.61720096,294.494862 C3.41184147,294.494862 0,297.905636 0,302.116726 L0,349.790787 C0,365.966263 13.1515471,379.126568 29.3181767,379.126568 L198.237804,379.126568 C216.978558,388.018526 237.917605,393 259.99935,393 C282.090195,393 303.033142,388.014622 321.777796,379.114857 C321.837595,379.11876 321.893495,379.126568 321.953295,379.126568 L490.681173,379.126568 C506.847933,379.126568 520,365.966263 520,349.790787 L520,79.0938635 C520,62.9217705 506.847933,49.7586024 490.681173,49.7586024 Z M379.335152,18.4783802 C379.335152,16.6960847 380.787248,15.2431548 382.573444,15.2431548 L418.960353,15.2431548 C420.742648,15.2431548 422.194745,16.6920506 422.194745,18.4783802 L422.194745,27.6838269 L379.340352,27.6838269 L379.340352,18.4783802 L379.335152,18.4783802 Z M357.634306,46.162129 C357.634306,44.3798335 359.086402,42.9269036 360.872598,42.9269036 L440.662498,42.9269036 C442.443494,42.9269036 443.89559,44.3798335 443.89559,46.162129 L443.89559,49.7586024 L357.638206,49.7586024 L357.638206,46.162129 L357.634306,46.162129 Z M197.590406,41.8194756 C197.590406,40.0371801 199.042502,38.5842501 200.823498,38.5842501 L215.510861,38.5842501 C217.295757,38.5842501 218.743953,40.0371801 218.743953,41.8194756 L218.743953,49.7586024 L197.590406,49.7586024 L197.590406,41.8194756 Z M63.0441224,30.9626467 C63.0441224,29.1803513 64.4960888,27.7274213 66.2774743,27.7274213 L146.071535,27.7274213 C147.85253,27.7274213 149.304627,29.1803513 149.304627,30.9626467 L149.304627,49.7586024 L63.0441224,49.7586024 L63.0441224,30.9626467 Z M84.8442879,138.620788 C77.2866268,138.620788 71.1333522,132.468121 71.1333522,124.903515 C71.1333522,117.340602 77.2866268,111.18377 84.8442879,111.18377 C92.405979,111.18377 98.5552236,117.340602 98.5552236,124.903515 C98.5552236,132.468121 92.405979,138.620788 84.8442879,138.620788 Z M112.766008,117.281131 C109.413706,104.999221 98.1704246,95.9406937 84.8442879,95.9406937 C71.5181512,95.9406937 60.2748693,104.999221 56.9225677,117.281131 L15.2344019,117.281131 L15.2344019,79.0938635 C15.2344019,71.3253404 21.5542061,65.0018092 29.3181767,65.0018092 L490.681173,65.0018092 C498.446054,65.0018092 504.765338,71.3253404 504.765338,79.0938635 L504.765338,117.281131 L482.095995,117.281131 L482.095995,89.5893142 C482.095995,85.3816082 478.684803,81.9678409 474.479314,81.9678409 L403.587891,81.9678409 C399.382402,81.9678409 395.97121,85.3816082 395.97121,89.5893142 L395.97121,117.281131 L321.444996,117.281131 C302.414344,108.341675 281.462296,103.542387 259.99935,103.542387 C238.029405,103.542387 217.193057,108.476493 198.526404,117.281131 L112.766008,117.281131 Z M411.204572,117.281131 L411.204572,97.2109176 L466.861333,97.2109176 L466.861333,117.281131 L411.204572,117.281131 Z M29.3181767,363.882841 C21.5542061,363.882841 15.2344019,357.5597 15.2344019,349.790787 L15.2344019,346.91746 L154.264114,346.91746 C160.0283,353.101359 166.324184,358.781645 173.080267,363.882841 L29.3181767,363.882841 Z M130.587274,248.27308 C130.587274,176.871951 188.643828,118.785984 259.99935,118.785984 C297.010257,118.785984 332.327269,134.702497 356.901108,162.454565 C359.689601,165.606376 364.502189,165.900475 367.652081,163.106529 C370.801973,160.315186 371.091872,155.500281 368.303379,152.34717 C361.768296,144.968654 354.548114,138.34751 346.788433,132.524078 L504.765338,132.524078 L504.765338,331.673733 L378.149555,331.673733 C389.781926,315.223677 398.065505,296.249049 402.020095,275.746665 L421.947745,275.746665 C433.183617,275.746665 442.327794,266.599648 442.327794,255.354894 L442.327794,236.368554 C442.327794,225.122499 433.187517,215.976783 421.947745,215.976783 L400.981398,215.976783 C398.212404,203.84973 393.912015,192.08835 388.13873,181.092149 C386.183535,177.365153 381.577646,175.927188 377.855755,177.889587 C374.131265,179.84548 372.694768,184.449569 374.649963,188.177867 C384.306339,206.581213 389.412726,227.36208 389.412726,248.27308 C389.412726,319.672909 331.358772,377.760177 259.99935,377.760177 C188.643828,377.760177 130.587274,319.669005 130.587274,248.27308 Z M403.626891,231.216607 L421.947745,231.216607 C424.784338,231.216607 427.094432,233.526459 427.094432,236.36465 L427.094432,255.354894 C427.094432,258.193085 424.784338,260.504239 421.947745,260.504239 L404.12349,260.504239 C404.464089,256.47013 404.647388,252.389173 404.647388,248.269176 C404.647388,242.565467 404.301589,236.869565 403.626891,231.216607 Z M490.681173,363.882841 L346.918433,363.882841 C353.675816,358.781645 359.9717,353.101359 365.735886,346.91746 L504.765338,346.91746 L504.765338,349.790787 C504.765338,357.5597 498.446054,363.882841 490.681173,363.882841 Z" id="Shape" stroke="url(#linearGradient-5)" stroke-width="3.25" fill="url(#linearGradient-6)" fill-rule="nonzero"></path>
                <path d="M159.139102,248.27308 C159.139102,192.624496 204.384189,147.348778 260.00065,147.348778 C315.617111,147.348778 360.862198,192.624496 360.862198,248.27308 C360.862198,303.91776 315.617111,349.192177 260.00065,349.192177 C204.384189,349.192177 159.139102,303.91776 159.139102,248.27308 Z M171.122472,248.27308 C171.122472,297.309629 210.992073,337.200462 260.00065,337.200462 C309.009227,337.200462 348.877528,297.309629 348.877528,248.27308 C348.877528,199.236531 309.009227,159.340493 260.00065,159.340493 C210.992073,159.340493 171.122472,199.236531 171.122472,248.27308 Z" id="Shape" stroke="url(#linearGradient-7)" stroke-width="3.25" fill="url(#linearGradient-8)" fill-rule="nonzero"></path>
                <path d="M190.045225,248.27308 C190.045225,209.677066 221.428446,178.27478 259.99805,178.27478 C298.571554,178.27478 329.954775,209.677066 329.954775,248.27308 C329.954775,286.867793 298.571554,318.266176 259.99805,318.266176 C221.424546,318.266176 190.045225,286.867793 190.045225,248.27308 Z M202.029895,248.27308 C202.029895,280.257059 228.03243,306.274461 259.99805,306.274461 C291.96367,306.274461 317.970105,280.257059 317.970105,248.27308 C317.970105,216.285197 291.96367,190.266495 259.99805,190.266495 C228.03243,190.266495 202.029895,216.285197 202.029895,248.27308 Z" id="Shape" stroke="url(#linearGradient-9)" stroke-width="3.25" fill="url(#linearGradient-10)" fill-rule="nonzero"></path>
            </g>
        </g>
    </g>
</svg>